<?xml version="1.0" encoding="UTF-8"?>
<svg version="1.1" xmlns="http://www.w3.org/2000/svg" width="512" height="512">
<path d="M0 0 C3.80586378 0.0047711 7.61167893 -0.0078127 11.4175266 -0.01801741 C18.85514053 -0.03513457 26.29266971 -0.03606017 33.7302982 -0.03080451 C39.78147253 -0.02674809 45.83262199 -0.02822376 51.88379514 -0.03355277 C52.74802921 -0.03430119 53.61226328 -0.03504961 54.50268626 -0.03582071 C56.25889809 -0.03735233 58.01510992 -0.03889068 59.77132174 -0.04043568 C76.20759019 -0.05413525 92.64381092 -0.04874109 109.08007827 -0.03725047 C124.08228638 -0.0273221 139.08437108 -0.04025643 154.08656017 -0.06418466 C169.52988423 -0.0886289 184.97315095 -0.09817039 200.41649395 -0.09153193 C209.07109844 -0.08805135 217.72560813 -0.09019457 226.38019788 -0.10778296 C233.74797589 -0.12257182 241.1155923 -0.12305382 248.48336736 -0.10571205 C252.23457129 -0.09725401 255.98548741 -0.0949233 259.73667562 -0.1103636 C292.25890576 -0.23451369 322.31241646 5.69469419 346.97637975 28.40683305 C347.75924352 29.12612993 347.75924352 29.12612993 348.55792272 29.85995805 C364.50603926 44.68061901 376.54197767 63.18308109 381.97637975 84.40683305 C382.34763022 85.70871332 382.34763022 85.70871332 382.72638071 87.0368942 C385.97268292 100.30087435 385.41191642 113.86384288 385.3832128 127.4304533 C385.3784417 131.23631708 385.39102551 135.04213223 385.40123022 138.8479799 C385.41834738 146.28559383 385.41927298 153.72312301 385.41401731 161.1607515 C385.40996089 167.21192583 385.41143656 173.26307529 385.41676557 179.31424844 C385.41751399 180.17848251 385.41826241 181.04271658 385.41903352 181.93313956 C385.42056514 183.68935139 385.42210349 185.44556322 385.42364848 187.20177504 C385.43734805 203.63804349 385.4319539 220.07426423 385.42046327 236.51053157 C385.41053491 251.51273968 385.42346924 266.51482438 385.44739746 281.51701347 C385.47184171 296.96033753 385.4813832 312.40360425 385.47474474 327.84694725 C385.47126415 336.50155175 385.47340738 345.15606143 385.49099576 353.81065118 C385.50578462 361.17842919 385.50626663 368.5460456 385.48892485 375.91382066 C385.48046681 379.66502459 385.4781361 383.41594071 385.49357641 387.16712892 C385.6177265 419.68935906 379.68851861 449.74286976 356.97637975 474.40683305 C356.4968485 474.92874223 356.01731725 475.45065141 355.52325475 475.98837602 C340.70259379 491.93649257 322.20013172 503.97243097 300.97637975 509.40683305 C299.67449948 509.77808352 299.67449948 509.77808352 298.3463186 510.15683401 C285.08233846 513.40313622 271.51936993 512.84236972 257.9527595 512.81366611 C254.14689572 512.808895 250.34108058 512.82147881 246.5352329 512.83168352 C239.09761898 512.84880068 231.6600898 512.84972628 224.22246131 512.84447061 C218.17128698 512.84041419 212.12013752 512.84188986 206.06896436 512.84721887 C205.20473029 512.84796729 204.34049623 512.84871572 203.45007325 512.84948682 C201.69386141 512.85101844 199.93764959 512.85255679 198.18143777 512.85410178 C181.74516932 512.86780135 165.30894858 512.8624072 148.87268124 512.85091657 C133.87047313 512.84098821 118.86838842 512.85392254 103.86619934 512.87785076 C88.42287527 512.90229501 72.97960856 512.9118365 57.53626555 512.90519804 C48.88166106 512.90171745 40.22715138 512.90386068 31.57256162 512.92144907 C24.20478362 512.93623792 16.8371672 512.93671993 9.46939214 512.91937815 C5.71818821 512.91092011 1.9672721 512.9085894 -1.78391612 512.92402971 C-34.30614626 513.0481798 -64.35965695 507.11897191 -89.02362025 484.40683305 C-89.54552943 483.9273018 -90.06743861 483.44777055 -90.60516322 482.95370805 C-106.55327976 468.13304709 -118.58921816 449.63058502 -124.02362025 428.40683305 C-124.27112056 427.53891287 -124.51862088 426.67099269 -124.7736212 425.7767719 C-128.01992342 412.51279176 -127.45915691 398.94982323 -127.4304533 385.3832128 C-127.4256822 381.57734902 -127.43826601 377.77153388 -127.44847071 373.9656862 C-127.46558787 366.52807228 -127.46651347 359.0905431 -127.46125781 351.65291461 C-127.45720139 345.60174028 -127.45867706 339.55059082 -127.46400607 333.49941766 C-127.46475449 332.63518359 -127.46550291 331.77094953 -127.46627401 330.88052655 C-127.46780564 329.12431471 -127.46934398 327.36810289 -127.47088898 325.61189107 C-127.48458855 309.17562262 -127.47919439 292.73940188 -127.46770377 276.30313454 C-127.4577754 261.30092643 -127.47070973 246.29884172 -127.49463796 231.29665264 C-127.5190822 215.85332857 -127.52862369 200.41006186 -127.52198523 184.96671885 C-127.51850465 176.31211436 -127.52064787 167.65760468 -127.53823626 159.00301492 C-127.55302512 151.63523692 -127.55350712 144.2676205 -127.53616535 136.89984544 C-127.52770731 133.14864151 -127.5253766 129.3977254 -127.5408169 125.64653718 C-127.66496699 93.12430704 -121.73575911 63.07079635 -99.02362025 38.40683305 C-98.544089 37.88492387 -98.06455775 37.36301469 -97.57049525 36.82529008 C-82.74983429 20.87717354 -64.24737221 8.84123514 -43.02362025 3.40683305 C-42.15570007 3.15933274 -41.28777989 2.91183242 -40.3935591 2.6568321 C-27.12957895 -0.58947012 -13.56661042 -0.02870361 0 0 Z " fill="#FEFEFF" transform="translate(127.02362024784088,-0.40683305263519287)"/>
<path d="M0 0 C5.98460978 3.66058632 10.7163081 8.76608882 15.59375 13.74609375 C39.71941985 38.34909455 66.97850548 53.41610724 102.15625 53.80859375 C131.54742 53.90632595 158.25544677 41.4583419 179.34375 21.43359375 C180.83977577 19.93215617 182.32753082 18.42244936 183.80859375 16.90625 C184.59008789 16.10759521 185.37158203 15.30894043 186.17675781 14.48608398 C187.70660661 12.90880416 189.22372725 11.31904222 190.72558594 9.71508789 C197.87768054 2.29394138 205.91428556 -2.64130515 216.40625 -2.87890625 C225.71203527 -2.80636672 234.16736128 0.34824704 240.8984375 6.9609375 C247.77699949 14.50682267 250.75240639 22.27474905 250.6171875 32.4296875 C249.30588483 46.83528399 238.7690682 56.34326015 229.03125 65.99609375 C228.12568359 66.90939453 227.22011719 67.82269531 226.28710938 68.76367188 C225.42279297 69.62541016 224.55847656 70.48714844 223.66796875 71.375 C222.88510498 72.15560791 222.10224121 72.93621582 221.2956543 73.74047852 C219.34375 75.43359375 219.34375 75.43359375 217.34375 75.43359375 C221.10413065 79.92199159 225.0185259 84.16445663 229.2265625 88.23828125 C230.51240234 89.48544922 230.51240234 89.48544922 231.82421875 90.7578125 C233.58740098 92.45848901 235.35827187 94.15123014 237.13671875 95.8359375 C244.46642067 102.9887537 250.35594434 110.89392493 250.59375 121.49609375 C250.417734 132.19786654 246.74724106 139.76790797 239.4921875 147.375 C232.53866719 154.00993272 226.28955223 155.57277276 216.78125 155.80859375 C201.0226361 155.41580676 192.67478106 146.01868849 182.15625 135.12109375 C165.71936972 118.4691086 147.50523053 106.50893028 124.34375 101.43359375 C122.87035156 101.09908203 122.87035156 101.09908203 121.3671875 100.7578125 C93.05383882 95.38047108 64.30352354 101.80382351 40.34375 117.43359375 C36.83520736 119.92537506 33.56823455 122.58650154 30.34375 125.43359375 C29.58449219 126.08457031 28.82523437 126.73554688 28.04296875 127.40625 C24.1084395 130.8513779 20.3382302 134.4130045 16.6953125 138.1640625 C16.04908936 138.82591553 15.40286621 139.48776855 14.73706055 140.16967773 C13.4682955 141.47613671 12.20870912 142.79159701 10.96020508 144.11743164 C5.31393008 149.9360305 -1.31617589 154.9331893 -9.65625 155.43359375 C-10.45675781 155.49546875 -11.25726563 155.55734375 -12.08203125 155.62109375 C-21.53665379 156.04902575 -29.23647267 153.81893627 -36.53125 147.68359375 C-43.99034957 140.49136716 -47.61795761 133.06005958 -48.03125 122.62109375 C-47.75807433 111.07582715 -42.55572342 104.33979968 -34.65625 96.43359375 C-33.90601562 95.67643066 -33.15578125 94.91926758 -32.3828125 94.13916016 C-26.83463079 88.54296533 -21.25615437 82.9780028 -15.65625 77.43359375 C-17.22932219 73.51780648 -19.92304625 70.99075228 -22.92578125 68.14453125 C-23.99067703 67.10983038 -25.0551153 66.07465848 -26.11914062 65.0390625 C-27.78583747 63.42776764 -29.45604994 61.82068532 -31.13500977 60.22216797 C-39.62291362 52.11773481 -46.68332749 44.51830974 -47.859375 32.328125 C-48.10503331 21.41680168 -44.45861606 13.57727547 -37.0625 5.74609375 C-27.15388803 -3.6016534 -12.37803966 -5.80722965 0 0 Z " fill="#3378FF" transform="translate(154.65625,181.56640625)"/>
<path d="M0 0 C0.65605225 0.31477295 1.31210449 0.6295459 1.98803711 0.95385742 C10.68098839 5.55965409 17.28467661 12.61106126 24.15161133 19.52026367 C26.30780931 21.68279553 28.48935869 23.81724728 30.67382812 25.95117188 C38.90945454 34.1086539 45.66949778 41.11873098 47.6640625 52.93359375 C47.54518529 63.59687912 45.69778123 72.40806646 38.3125 80.4375 C30.93090572 87.16077372 22.59066946 90.35595697 12.71484375 90.2109375 C-0.87703691 89.15487771 -9.95891977 80.53357794 -19.07836914 71.2578125 C-20.58241033 69.72977197 -22.09977756 68.21591706 -23.61914062 66.703125 C-31 59.27958309 -31 59.27958309 -31 57 C-35.58527654 60.82483501 -39.88140173 64.83403467 -44.0234375 69.13671875 C-44.9 70.04357422 -45.7765625 70.95042969 -46.6796875 71.88476562 C-48.478689 73.75546646 -50.26777782 75.63575012 -52.046875 77.52539062 C-57.59882077 83.22793903 -62.32792917 86.77838876 -70 89 C-70.99 89.33 -71.98 89.66 -73 90 C-83.09736582 91.10612771 -92.1095883 88.8393627 -100.375 82.8125 C-108.40480246 74.20914022 -111.50080007 65.19217744 -111.31640625 53.55078125 C-110.68299851 46.44253881 -108.55749016 41.46172521 -103.49250793 36.48149109 C-101.88481538 34.88566561 -100.31503354 33.25832626 -98.7487793 31.62182617 C-95.46258972 28.19148402 -92.15070938 24.78713596 -88.82983398 21.39038086 C-87.41385 19.93437818 -86.00515385 18.47124845 -84.60424805 17.00073242 C-61.51461615 -7.2015214 -30.92343484 -16.44082353 0 0 Z " fill="#BBD6FF" transform="translate(288,315)"/>
<path d="M0 0 C7.80986431 5.2029096 13.26090979 11.98338397 16 21 C17.41163732 30.70629455 16.4604328 39.64647367 11 48 C6.82456948 53.23225804 2.02516941 57.89932241 -2.76220703 62.56494141 C-4.9883755 64.73864943 -7.18088103 66.94247464 -9.37109375 69.15234375 C-26.1308536 85.85459554 -42.13606551 94.28320815 -66.13012695 94.31689453 C-74.15720026 94.21475127 -80.5924057 93.25485204 -88 90 C-88.99773437 89.59910156 -89.99546875 89.19820313 -91.0234375 88.78515625 C-96.67009834 86.28117426 -101.08351652 83.25708147 -105.59375 79.0390625 C-106.10692276 78.56034195 -106.62009552 78.0816214 -107.14881897 77.58839417 C-108.77334109 76.0666163 -110.38804842 74.53508066 -112 73 C-112.52028778 72.50585602 -113.04057556 72.01171204 -113.57662964 71.50259399 C-116.70853547 68.51946181 -119.80815002 65.50592114 -122.88452148 62.46557617 C-123.92711688 61.43969902 -124.97506851 60.4192394 -126.02807617 59.40405273 C-134.9660472 50.78229973 -141.98535322 42.36840695 -142.3125 29.4375 C-142.14930565 19.83234695 -139.62750373 12.99750383 -132.875 6.0625 C-125.65151454 -0.84087416 -119.44127965 -3.15065784 -109.5 -3.5 C-97.18881679 -3.0916894 -90.50412894 1.50331776 -82 10 C-81.27522461 10.71784668 -80.55044922 11.43569336 -79.80371094 12.17529297 C-74.50825324 17.42299604 -69.24369096 22.70059803 -64 28 C-60.08421273 26.42692781 -57.55715853 23.73320375 -54.7109375 20.73046875 C-53.67623663 19.66557297 -52.64106473 18.6011347 -51.60546875 17.53710938 C-49.99417389 15.87041253 -48.38709157 14.20020006 -46.78857422 12.52124023 C-33.32693362 -1.57735357 -19.02397713 -9.26101261 0 0 Z " fill="#C1DAFF" transform="translate(319,111)"/>
</svg>
