<?xml version="1.0" encoding="UTF-8"?>
<svg version="1.1" xmlns="http://www.w3.org/2000/svg" width="4096" height="4096">
<path d="M0 0 C4.47255555 0.01706462 8.94457427 0.00693702 13.4171114 -0.01032257 C34.64369297 -0.079744 55.43200258 0.63736845 76.50146484 3.39111328 C77.72796753 3.54800629 77.72796753 3.54800629 78.97924805 3.70806885 C83.19231528 4.25844465 87.37889276 4.90916793 91.56396484 5.64111328 C92.78470703 5.8516333 94.00544922 6.06215332 95.26318359 6.27905273 C156.097904 17.12733867 222.17168907 41.51241339 262.91552734 90.50439453 C263.99413634 91.78756731 265.11668001 93.03478553 266.27490234 94.24658203 C302.09705193 132.04260516 315.37068222 188.70701002 314.50146484 239.39111328 C311.87102299 311.00217949 285.59489169 381.06649518 232.81396484 430.89111328 C204.40790886 456.61841486 169.27253413 475.95341132 130.50146484 478.39111328 C129.76412109 478.44525391 129.02677734 478.49939453 128.26708984 478.55517578 C118.89844127 478.93128941 109.32766196 477.11068662 102.08349609 470.93408203 C96.71925061 465.70228705 94.28819025 461.19741224 94.11987305 453.62133789 C94.18797718 431.22516775 105.60214468 412.01559723 115.50146484 392.45361328 C130.45273093 362.84822212 143.19384816 332.17764553 148.62646484 299.32861328 C148.75531067 298.55810638 148.88415649 297.78759949 149.01690674 296.9937439 C153.80841503 268.21829361 156.17145781 238.37454048 151.50146484 209.39111328 C151.2675 207.90369629 151.2675 207.90369629 151.02880859 206.38623047 C145.54880342 172.5827171 132.50654892 140.92409217 104.50146484 119.39111328 C77.39847418 100.19316156 47.68093878 94.14982735 14.93896484 94.20361328 C14.14266663 94.2048822 13.34636841 94.20615112 12.52593994 94.2074585 C-26.1307445 94.32474389 -61.51311226 104.06498766 -96.49853516 120.39111328 C-97.41344727 120.81763184 -98.32835937 121.24415039 -99.27099609 121.68359375 C-132.44697178 137.32941686 -164.07808939 158.46083883 -191.41381836 182.93823242 C-195.30081032 186.39111328 -195.30081032 186.39111328 -197.49853516 186.39111328 C-197.49853516 187.05111328 -197.49853516 187.71111328 -197.49853516 188.39111328 C-198.86181641 189.76611328 -198.86181641 189.76611328 -200.81103516 191.39111328 C-205.16228475 195.0877501 -209.38160424 198.91055003 -213.59228516 202.76611328 C-215.80838381 204.76775077 -218.04580129 206.72706021 -220.30712891 208.67626953 C-224.74226858 212.54798415 -228.91063861 216.65568065 -233.06103516 220.82861328 C-233.77710938 221.54082031 -234.49318359 222.25302734 -235.23095703 222.98681641 C-239.29355375 227.05680638 -243.17879151 231.22440186 -246.93286133 235.58032227 C-249.02778773 238.00322405 -251.20022486 240.35102318 -253.37353516 242.70361328 C-257.41132838 247.13607802 -261.2716095 251.66853505 -265.03369141 256.33642578 C-266.83938691 258.57422908 -268.65832828 260.79593227 -270.49462891 263.00830078 C-276.0821264 269.76447822 -281.49592183 276.60842086 -286.61572266 283.72705078 C-287.1722049 284.49975815 -287.72868713 285.27246552 -288.30203247 286.06858826 C-294.51161717 294.73897926 -300.47032175 303.57280211 -306.37353516 312.45361328 C-306.93680511 313.29973175 -307.50007507 314.14585022 -308.08041382 315.01760864 C-352.45309755 381.76124278 -385.48315498 454.76929349 -405.49853516 532.39111328 C-405.76158447 533.40294678 -406.02463379 534.41478027 -406.2956543 535.45727539 C-408.03292716 542.25112585 -409.50771074 549.06406029 -410.81103516 555.95361328 C-411.01978271 557.05366699 -411.22853027 558.1537207 -411.44360352 559.28710938 C-417.86482663 593.4817154 -423.28408285 627.62964262 -425.49853516 662.39111328 C-425.55638184 663.24592285 -425.61422852 664.10073242 -425.67382812 664.98144531 C-427.21490413 688.46341943 -427.24146777 712.36192492 -425.92260742 735.85717773 C-425.47606186 743.93850735 -425.29985336 752.01878403 -425.11798096 760.109375 C-424.15868063 801.70578862 -421.00061922 842.87781065 -414.07470703 883.93164062 C-413.55942191 887.02553474 -413.07631061 890.12188026 -412.60791016 893.22314453 C-403.68905104 950.66655683 -382.39460934 1008.94547984 -348.49853516 1056.39111328 C-347.99435059 1057.0973584 -347.49016602 1057.80360352 -346.97070312 1058.53125 C-341.28704988 1066.42631514 -335.3806119 1073.92442001 -328.71728516 1081.02001953 C-326.79654664 1083.07263974 -324.98607834 1085.17120858 -323.18603516 1087.32861328 C-315.0523602 1096.66798593 -305.2396321 1104.80454851 -295.49853516 1112.39111328 C-294.69174316 1113.02267334 -294.69174316 1113.02267334 -293.86865234 1113.66699219 C-248.28365532 1149.07745925 -191.07517294 1164.59449747 -133.93603516 1164.64111328 C-133.1804129 1164.64178802 -132.42479065 1164.64246277 -131.64627075 1164.64315796 C-58.86712112 1164.54120903 8.63981585 1137.94624215 67.69189453 1096.64648438 C69.39054411 1095.46806342 71.10565651 1094.31347394 72.82177734 1093.16064453 C81.17895435 1087.52417012 88.93819899 1081.30631789 96.69433594 1074.87792969 C98.2371313 1073.60859386 99.79907156 1072.36258736 101.36474609 1071.12158203 C113.92896507 1061.1502823 125.27497684 1049.69604244 136.62646484 1038.39111328 C137.40763672 1037.61461426 138.18880859 1036.83811523 138.99365234 1036.03808594 C143.15395556 1031.8661267 147.14730068 1027.60733845 150.99121094 1023.14208984 C152.86329826 1020.97160645 154.80679014 1018.87156817 156.75146484 1016.76611328 C160.82172164 1012.26123584 164.56479215 1007.56196135 168.28051758 1002.76660156 C171.36214344 998.8023043 174.5403034 994.94772418 177.81396484 991.14111328 C189.97694752 976.90685842 200.94665419 961.84296089 211.50146484 946.39111328 C212.18136475 945.40014648 212.18136475 945.40014648 212.875 944.38916016 C225.12941653 926.48066977 236.15298814 907.78783777 246.99316406 889.00097656 C248.2817688 886.77126068 249.57841065 884.54663602 250.88037109 882.32470703 C254.17107229 876.66418579 257.28064185 870.94445139 260.18896484 865.07861328 C260.53293304 864.3873938 260.87690125 863.69617432 261.23129272 862.98400879 C262.32330273 860.78734014 263.41261295 858.58934883 264.50146484 856.39111328 C264.85074036 855.68736572 265.20001587 854.98361816 265.55987549 854.25854492 C285.54779783 813.96884511 302.93278031 773.00644994 318.28466797 730.73681641 C326.16691278 709.06380618 334.8686831 687.71454628 345.53759766 667.24511719 C346.51439687 665.36623846 347.4731897 663.47887323 348.43115234 661.59033203 C355.48861861 647.83471335 363.54850716 634.64060564 371.50146484 621.39111328 C372.04013184 620.48474121 372.57879883 619.57836914 373.13378906 618.64453125 C374.39838364 616.56095254 375.74911603 614.68203003 377.25146484 612.76611328 C379.56234342 609.73378968 381.62807838 606.63727275 383.62646484 603.39111328 C401.01107463 575.67595932 424.44545812 548.29942193 449.47021484 527.14501953 C451.56866234 525.33309083 453.59091342 523.44970861 455.61352539 521.55395508 C462.57770095 515.05053666 469.90711808 509.13995212 477.50146484 503.39111328 C478.09830078 502.93736328 478.69513672 502.48361328 479.31005859 502.01611328 C529.61044799 463.93925938 589.897594 438.16756671 654.06396484 446.51611328 C668.92367723 448.70778697 683.96317315 452.83321622 697.50146484 459.39111328 C698.68869141 459.96474609 699.87591797 460.53837891 701.09912109 461.12939453 C710.05640688 465.60918491 717.83001941 470.97535201 725.50146484 477.39111328 C726.44763672 478.17228516 727.39380859 478.95345703 728.36865234 479.75830078 C748.99024337 497.57582277 764.73765867 525.48067628 769.50146484 552.39111328 C771.67859612 549.56602627 773.62010979 546.67009492 775.50146484 543.64111328 C786.7292823 525.92663658 799.01901961 509.5661972 813.50146484 494.39111328 C814.10216797 493.73755859 814.70287109 493.08400391 815.32177734 492.41064453 C838.49405618 467.89926416 873.54884046 451.66873949 907.16308594 450.28125 C928.00909562 449.84733796 950.41143473 450.29814302 966.59912109 465.34033203 C976.17309517 475.68672865 977.85699517 486.96440356 977.81713867 500.67651367 C977.81400656 502.923684 977.83737938 505.16949846 977.86279297 507.41650391 C977.93092911 521.81776237 974.575229 534.7399712 970.23391724 548.39456177 C964.22763982 567.32931315 958.62818865 586.38550633 953.06396484 605.45361328 C952.86002861 606.15241608 952.65609238 606.85121887 952.44597626 607.57119751 C946.94384405 626.43079828 941.48662567 645.3031144 936.12646484 664.20361328 C935.86946808 665.10677277 935.61247131 666.00993225 935.34768677 666.94046021 C931.222776 681.45675693 927.40022095 696.03450371 924.05029297 710.75024414 C922.62828841 716.93742523 921.03894153 723.06733415 919.38427734 729.19580078 C918.77746602 731.4641327 918.17120796 733.73261268 917.56542969 736.0012207 C917.09178986 737.77340469 917.09178986 737.77340469 916.60858154 739.58139038 C896.397019 815.41149023 878.58791978 892.35535685 869.50146484 970.39111328 C869.30230469 972.07962402 869.30230469 972.07962402 869.09912109 973.80224609 C865.73020576 1003.50737314 861.54161706 1043.92566049 879.90380859 1069.52001953 C884.88518372 1075.35395275 890.62586185 1077.9441257 898.27099609 1078.64501953 C923.50865026 1079.60971408 946.65818816 1065.76572763 964.61962891 1049.16455078 C974.56118999 1039.79564838 984.19887879 1030.26633164 992.50146484 1019.39111328 C993.49018453 1018.13001902 994.47984092 1016.86965883 995.47021484 1015.60986328 C1003.12235413 1005.80851917 1010.20743715 995.68313903 1017.15185547 985.37207031 C1018.7617799 983.00902277 1020.43999858 980.6999659 1022.12646484 978.39111328 C1025.5265476 973.5707428 1028.47000515 968.48344885 1031.43896484 963.39111328 C1031.9367041 962.54033203 1032.43444336 961.68955078 1032.94726562 960.81298828 C1033.4072998 960.01376953 1033.86733398 959.21455078 1034.34130859 958.39111328 C1034.75759521 957.66923828 1035.17388184 956.94736328 1035.6027832 956.20361328 C1036.6495376 954.42965096 1036.6495376 954.42965096 1036.50146484 952.39111328 C1037.16146484 952.39111328 1037.82146484 952.39111328 1038.50146484 952.39111328 C1038.96552734 950.72048828 1038.96552734 950.72048828 1039.43896484 949.01611328 C1040.50146484 945.39111328 1040.50146484 945.39111328 1041.50146484 943.39111328 C1042.16146484 943.39111328 1042.82146484 943.39111328 1043.50146484 943.39111328 C1043.66751221 942.3166394 1043.66751221 942.3166394 1043.83691406 941.22045898 C1044.55376564 938.16844101 1045.648159 935.87866427 1047.13427734 933.12158203 C1047.68543213 932.08477295 1048.23658691 931.04796387 1048.80444336 929.97973633 C1049.70634399 928.29618042 1049.70634399 928.29618042 1050.62646484 926.57861328 C1058.80131032 911.10326726 1066.27110296 895.32685275 1073.50146484 879.39111328 C1073.92332062 878.46165894 1073.92332062 878.46165894 1074.35369873 877.51342773 C1100.32209132 820.15519456 1120.68318923 759.89771606 1136.56396484 699.01611328 C1136.83613831 697.97615204 1137.10831177 696.9361908 1137.38873291 695.86471558 C1140.67437561 683.25322223 1143.60504072 670.63081352 1146.03591919 657.82714844 C1146.50569149 655.36899677 1146.98941759 652.91399382 1147.4777832 650.45947266 C1152.23538213 626.53676799 1156.57693734 602.61271262 1159.50146484 578.39111328 C1159.62521484 577.37392212 1159.62521484 577.37392212 1159.75146484 576.33618164 C1161.82881339 559.07646533 1162.76529628 541.96513574 1162.75146484 524.57861328 C1162.75057358 523.32387711 1162.75057358 523.32387711 1162.74966431 522.04379272 C1162.74318849 519.67373261 1162.72682299 517.30404263 1162.70458984 514.93408203 C1162.70019394 514.2283606 1162.69579803 513.52263916 1162.69126892 512.79553223 C1162.64372922 509.50302217 1162.41664849 506.55325795 1161.50146484 503.39111328 C1160.80587814 495.46142485 1162.58432205 488.52985134 1167.20849609 481.96923828 C1183.38258924 464.03238547 1215.40619691 457.03435879 1238.50146484 455.39111328 C1262.97536125 454.21680834 1284.15520256 457.72471439 1303.68896484 473.64111328 C1324.53345847 492.87238744 1332.3442691 525.94183659 1333.63327026 553.17590332 C1333.87144031 560.78823577 1333.88956198 568.40066049 1333.87646484 576.01611328 C1333.87564911 577.80156052 1333.87564911 577.80156052 1333.87481689 579.62307739 C1333.83218225 600.01522599 1332.67369535 619.95643105 1329.81787109 640.14056396 C1329.49771679 642.41777261 1329.18972851 644.69636198 1328.88427734 646.97558594 C1324.41492415 680.06086655 1317.59658213 712.78202535 1310.50146484 745.39111328 C1310.78642822 744.85558838 1311.0713916 744.32006348 1311.36499023 743.76831055 C1319.00774178 729.45799535 1327.08958797 715.46677388 1335.53515625 701.61621094 C1337.51326125 698.37176506 1339.48194826 695.12171974 1341.45068359 691.87158203 C1366.25869148 651.07774668 1394.07995056 612.45926913 1425.03369141 576.11767578 C1426.5559356 574.32703856 1428.07180428 572.53112765 1429.58740234 570.73486328 C1434.440195 565.00341642 1439.30603012 559.41533102 1444.70458984 554.18408203 C1446.58853778 552.30422963 1448.32774966 550.3452349 1450.06396484 548.32861328 C1454.46545126 543.23005888 1459.13191632 538.5337012 1464.23583984 534.13720703 C1468.36896823 530.53836689 1472.34400834 526.79280717 1476.31396484 523.01611328 C1482.5023274 517.18310089 1488.80370446 511.63812661 1495.50146484 506.39111328 C1496.84938759 505.31332149 1498.19702008 504.23516663 1499.54443359 503.15673828 C1529.70551104 479.1778687 1563.93745239 457.90192058 1602.50146484 451.39111328 C1603.54947266 451.20806641 1604.59748047 451.02501953 1605.67724609 450.83642578 C1633.96307352 447.54267264 1664.00361649 452.81486557 1687.48974609 469.51611328 C1690.26388235 471.71344893 1692.89245553 474.00049638 1695.50146484 476.39111328 C1696.41541016 477.21224609 1697.32935547 478.03337891 1698.27099609 478.87939453 C1721.83680435 501.12683589 1732.47053695 534.03110629 1736.50146484 565.39111328 C1736.5862056 566.03139969 1736.67094635 566.6716861 1736.758255 567.33137512 C1737.49162576 573.28220796 1737.69215302 579.16843619 1737.73974609 585.16064453 C1737.75450485 586.69257195 1737.75450485 586.69257195 1737.76956177 588.25544739 C1737.95781801 612.94512592 1737.22518276 636.97948252 1733.50146484 661.39111328 C1733.26833275 662.95751072 1733.03526117 664.52391718 1732.80224609 666.09033203 C1726.73018062 706.40344484 1717.24075243 746.10206942 1707.38549805 785.63134766 C1707.14052582 786.61558716 1706.89555359 787.59982666 1706.64315796 788.6138916 C1706.19002157 790.43112415 1705.73475905 792.24782868 1705.27676392 794.06384277 C1703.84177499 799.80943779 1702.62505187 805.57721298 1701.50146484 811.39111328 C1700.90060585 814.46751282 1700.25265053 817.5184816 1699.50512695 820.5625 C1699.31050369 821.35869751 1699.11588043 822.15489502 1698.9153595 822.97521973 C1698.7052977 823.83176147 1698.4952359 824.68830322 1698.27880859 825.57080078 C1669.13595058 928.73228531 1669.13595058 928.73228531 1680.41552734 1031.89501953 C1681.36184854 1034.07019668 1682.01159145 1036.07782224 1682.50146484 1038.39111328 C1683.16146484 1038.39111328 1683.82146484 1038.39111328 1684.50146484 1038.39111328 C1686.16813151 1040.05777995 1687.83479818 1041.72444661 1689.50146484 1043.39111328 C1697.71109807 1048.99769207 1708.99088355 1048.67419329 1718.55078125 1047.04101562 C1740.68772909 1041.81132459 1758.54570063 1025.67411161 1774.50146484 1010.39111328 C1775.25169922 1009.68212891 1776.00193359 1008.97314453 1776.77490234 1008.24267578 C1781.29566102 1003.864866 1785.23183809 999.13369389 1789.16162109 994.22314453 C1791.44665571 991.45745155 1793.84586083 988.86848215 1796.31396484 986.26611328 C1802.80998086 979.19603073 1808.1174985 971.32109592 1813.50146484 963.39111328 C1814.23888916 962.31168457 1814.23888916 962.31168457 1814.99121094 961.21044922 C1816.39676444 959.14984853 1817.79505001 957.08460149 1819.18896484 955.01611328 C1819.61113281 954.39188477 1820.03330078 953.76765625 1820.46826172 953.12451172 C1822.17821229 950.55673118 1823.52052924 948.3339201 1824.50146484 945.39111328 C1825.16146484 945.39111328 1825.82146484 945.39111328 1826.50146484 945.39111328 C1826.61594971 944.82408691 1826.73043457 944.25706055 1826.84838867 943.67285156 C1827.57574028 941.13160739 1828.62568048 939.1701106 1829.95068359 936.88330078 C1830.46195801 935.99255859 1830.97323242 935.10181641 1831.5 934.18408203 C1832.0573584 933.22115234 1832.6147168 932.25822266 1833.18896484 931.26611328 C1878.02475899 852.76909983 1916.85494981 758.89824911 1923.50683594 654.83056641 C1923.62799851 652.2332364 1923.75741683 649.63641348 1923.88818359 647.03955078 C1923.97068229 645.36249038 1924.05273045 643.68540774 1924.13427734 642.00830078 C1924.17175079 641.24468231 1924.20922424 640.48106384 1924.24783325 639.69430542 C1924.4059557 636.2790975 1924.50041246 632.89444849 1924.49316406 629.47363281 C1924.50146484 626.39111328 1924.50146484 626.39111328 1925.00146484 624.45361328 C1925.53104152 622.26910948 1925.5332806 620.44662394 1925.50146484 618.20361328 C1925.50146484 614.39111328 1925.50146484 614.39111328 1926.50146484 613.39111328 C1926.66357015 611.37039005 1926.77776602 609.34579828 1926.87255859 607.32080078 C1927.4035081 599.23277228 1928.84431197 591.42628513 1930.56396484 583.51611328 C1930.71697052 582.80244598 1930.8699762 582.08877869 1931.02761841 581.35348511 C1938.9584036 544.63397518 1953.4086396 511.72441711 1979.50146484 484.39111328 C1980.34064453 483.48039062 1980.34064453 483.48039062 1981.19677734 482.55126953 C1982.50146484 481.39111328 1982.50146484 481.39111328 1984.50146484 481.39111328 C1984.50146484 480.73111328 1984.50146484 480.07111328 1984.50146484 479.39111328 C2008.86553259 458.96545268 2039.26217114 450.20203043 2070.65600586 450.20581055 C2072.66786261 450.20363609 2074.6791585 450.18545259 2076.69091797 450.16650391 C2092.18249734 450.14368862 2110.36539294 450.77310727 2122.25927734 462.05908203 C2129.94776198 470.4718442 2129.29321972 480.70085103 2128.80908203 491.4921875 C2128.02309825 501.45422001 2126.31345731 511.32627986 2124.7878418 521.19628906 C2120.46229864 549.22393423 2119.44997021 577.37784295 2118.93896484 605.70361328 C2118.91845062 606.83852203 2118.8979364 607.97343079 2118.87680054 609.14273071 C2117.8026449 671.53085152 2117.47114044 734.05464788 2120.50146484 796.39111328 C2120.55473938 797.50248657 2120.60801392 798.61385986 2120.66290283 799.75891113 C2120.94005307 928.71344606 2120.94005307 928.71344606 2166.60693359 1043.68408203 C2170.92297678 1047.57297043 2174.83138585 1047.94925326 2180.50146484 1047.82861328 C2196.30207557 1045.52435755 2212.91302738 1027.23953849 2222.84521484 1015.35986328 C2224.74837978 1013.09761062 2226.74746505 1010.93946517 2228.75146484 1008.76611328 C2232.83664526 1004.24397808 2236.60412851 999.53042747 2240.33325195 994.71606445 C2243.4053 990.7567629 2246.57007003 986.89785898 2249.81396484 983.07861328 C2253.25471022 978.99000604 2256.32707435 974.84487698 2259.20068359 970.34423828 C2260.41087315 968.52713684 2261.69419619 966.91040962 2263.12646484 965.26611328 C2265.73407764 962.10952937 2267.56024347 958.98596767 2269.50146484 955.39111328 C2270.16146484 955.39111328 2270.82146484 955.39111328 2271.50146484 955.39111328 C2271.59194092 954.84720947 2271.68241699 954.30330566 2271.77563477 953.74291992 C2272.72606587 950.66336969 2274.30252432 948.42810749 2276.11474609 945.76220703 C2276.4803212 945.2202066 2276.8458963 944.67820618 2277.22254944 944.11978149 C2278.00712643 942.95732032 2278.79416933 941.79652036 2279.58343506 940.63723755 C2281.66186302 937.58237833 2283.71947368 934.51354914 2285.77880859 931.44580078 C2286.18862976 930.83613968 2286.59845093 930.22647858 2287.02069092 929.5983429 C2295.70784386 916.6550263 2303.78845354 903.34544531 2311.76708984 889.95751953 C2313.97158826 886.26294348 2316.22256549 882.60267734 2318.50146484 878.95361328 C2337.29994923 848.48844064 2354.56135798 816.35158555 2369.41601562 783.76220703 C2370.74366988 780.86203202 2372.08941628 777.97048524 2373.43505859 775.07861328 C2378.6207551 763.91783227 2383.78806115 752.76116605 2388.50146484 741.39111328 C2387.78567261 740.92439209 2387.78567261 740.92439209 2387.05541992 740.44824219 C2373.2889483 731.4446096 2360.23264357 722.20097837 2348.22021484 710.92236328 C2345.92233521 708.78295811 2343.58487678 706.73092338 2341.18896484 704.70361328 C2337.21934508 701.24646492 2333.88409013 697.41387682 2330.50146484 693.39111328 C2329.68935547 692.46685547 2328.87724609 691.54259766 2328.04052734 690.59033203 C2282.42582264 638.41882556 2263.82498452 569.32684312 2268.25146484 500.95361328 C2272.56897757 441.96466088 2294.14124454 379.79060513 2340.03857422 340.06054688 C2374.01184414 311.45521596 2415.79474633 300.95190299 2459.67431641 304.65917969 C2476.31624565 306.75498374 2494.15453781 313.15318854 2507.50146484 323.39111328 C2508.03932617 323.80312988 2508.5771875 324.21514648 2509.13134766 324.63964844 C2538.9909368 347.88687731 2553.03799825 383.98730294 2557.95849609 420.61767578 C2568.41208572 508.02001867 2532.92650224 598.9750197 2502.52880859 679.46533203 C2502.23762146 680.23782791 2501.94643433 681.01032379 2501.64642334 681.80622864 C2499.62066774 687.15270749 2499.62066774 687.15270749 2498.50146484 689.39111328 C2544.84730643 697.02454601 2589.57727422 683.27766634 2627.50146484 656.39111328 C2628.32388672 655.83037109 2629.14630859 655.26962891 2629.99365234 654.69189453 C2640.79166241 647.29198028 2650.90082991 639.28277825 2660.50146484 630.39111328 C2661.51316201 629.4807859 2662.52624636 628.57199841 2663.54052734 627.66455078 C2668.58214149 623.13633292 2673.45869102 618.58922807 2677.81787109 613.38330078 C2679.68657662 611.17207151 2681.65380679 609.07252627 2683.62646484 606.95361328 C2688.20495877 601.88622933 2692.3003165 596.51066153 2696.41308594 591.06665039 C2701.79547307 583.95549364 2707.4000697 577.04116535 2713.06152344 570.15136719 C2714.34968664 568.57665428 2715.62380509 566.99047659 2716.89599609 565.40283203 C2728.44739355 551.02082187 2741.36973416 537.06470553 2755.47021484 525.14501953 C2757.56844628 523.33327738 2759.59052573 521.45014924 2761.61279297 519.55444336 C2768.5781346 513.05083647 2775.88784378 507.11749994 2783.50146484 501.39111328 C2784.5344873 500.6133252 2784.5344873 500.6133252 2785.58837891 499.81982422 C2836.03904311 462.0782792 2897.04246193 437.61125335 2960.87646484 446.57861328 C2987.01702494 450.7902902 3011.34472568 459.87355437 3031.50146484 477.39111328 C3032.38189453 478.12716797 3033.26232422 478.86322266 3034.16943359 479.62158203 C3054.39383094 497.10755604 3067.71589762 522.71852944 3074.50146484 548.39111328 C3074.63037109 551.31689453 3074.63037109 551.31689453 3074.50146484 553.39111328 C3075.16146484 553.39111328 3075.82146484 553.39111328 3076.50146484 553.39111328 C3076.78119141 552.65505859 3077.06091797 551.91900391 3077.34912109 551.16064453 C3085.69482144 531.10267319 3102.26061951 512.364596 3117.14941406 496.81054688 C3118.33482326 495.56605986 3119.49996524 494.30233256 3120.66162109 493.03564453 C3131.95255843 481.09205186 3145.85191538 471.70136913 3160.50146484 464.39111328 C3161.1440625 464.06916992 3161.78666016 463.74722656 3162.44873047 463.41552734 C3189.35958709 450.20351381 3222.85853209 445.1853748 3251.72412109 454.42236328 C3263.61045984 458.87034845 3273.32608913 466.98613619 3279.00537109 478.41845703 C3282.96745747 487.55044528 3283.70411272 495.46161456 3283.75146484 505.32861328 C3283.78240234 506.88805664 3283.78240234 506.88805664 3283.81396484 508.47900391 C3283.88346009 522.66472007 3280.0244263 535.65331243 3275.66098022 548.99035645 C3274.30036409 553.15408422 3272.97018401 557.32753522 3271.63818359 561.50048828 C3271.3701442 562.33868103 3271.1021048 563.17687378 3270.82594299 564.04046631 C3268.32937689 571.87400762 3265.97536179 579.743945 3263.68896484 587.64111328 C3263.36524902 588.75357422 3263.0415332 589.86603516 3262.70800781 591.01220703 C3260.75065873 597.81935602 3258.89169159 604.64881114 3257.06333923 611.49154663 C3253.71634865 624.01555197 3250.18826677 636.47297853 3246.53588867 648.91088867 C3237.45142826 679.92974826 3229.12536431 711.14228591 3221.01130676 742.42615509 C3220.51040078 744.3566737 3220.00856574 746.28695118 3219.50671387 748.21722412 C3201.64190239 816.99350503 3185.30616533 886.79360497 3176.74432373 957.41333008 C3176.50759579 959.34118433 3176.25883885 961.26754948 3176.00976562 963.19384766 C3173.86705509 980.00826551 3173.20131003 996.64458429 3173.12646484 1013.57861328 C3173.11851898 1014.51784637 3173.11057312 1015.45707947 3173.10238647 1016.42477417 C3172.96528653 1037.44853206 3173.75739184 1063.17078762 3187.50146484 1080.39111328 C3194.47170717 1087.08198718 3201.46804866 1088.88374163 3211.00537109 1088.69970703 C3234.86936522 1086.59327626 3255.50343142 1067.69222152 3270.30224609 1050.12158203 C3284.10009015 1033.21674143 3295.67821214 1014.48796249 3306.23583984 995.43798828 C3307.64431019 992.90178188 3309.08537652 990.3933134 3310.57958984 987.90673828 C3324.42840996 964.611715 3334.08180673 938.71769404 3343.50146484 913.39111328 C3343.89591797 912.34149414 3344.29037109 911.291875 3344.69677734 910.21044922 C3345.05771484 909.23881836 3345.41865234 908.2671875 3345.79052734 907.26611328 C3346.1045752 906.42306641 3346.41862305 905.58001953 3346.7421875 904.71142578 C3347.4618009 902.51232426 3347.86786681 900.41781359 3348.25146484 898.14111328 C3349.97340934 892.97527979 3353.15994623 890.51157979 3357.50146484 887.39111328 C3361.22165081 885.5310203 3365.44223407 885.94667196 3369.50146484 886.39111328 C3373.55728184 887.82457624 3376.93719101 890.01493073 3380.50146484 892.39111328 C3380.50146484 893.05111328 3380.50146484 893.71111328 3380.50146484 894.39111328 C3381.07123047 894.60123047 3381.64099609 894.81134766 3382.22802734 895.02783203 C3385.34780349 896.89862563 3386.81594287 899.21404895 3388.87646484 902.20361328 C3389.60607422 903.24130859 3390.33568359 904.27900391 3391.08740234 905.34814453 C3397.83123128 916.24035831 3400.42413846 925.03860205 3400.06396484 937.89111328 C3400.06203125 939.20208984 3400.06009766 940.51306641 3400.05810547 941.86376953 C3399.9434917 950.41310776 3398.7563893 958.15891384 3396.50146484 966.39111328 C3396.16538208 967.69918945 3396.16538208 967.69918945 3395.82250977 969.03369141 C3382.59020616 1019.94026085 3355.20876813 1064.5907 3318.31396484 1101.70361328 C3317.66081299 1102.36151855 3317.00766113 1103.01942383 3316.3347168 1103.69726562 C3311.88655436 1108.13030397 3307.26371376 1112.2994985 3302.50146484 1116.39111328 C3301.51404297 1117.25994141 3300.52662109 1118.12876953 3299.50927734 1119.02392578 C3284.62702291 1131.88961458 3268.574835 1142.65401187 3251.50146484 1152.39111328 C3250.79731445 1152.79813477 3250.09316406 1153.20515625 3249.36767578 1153.62451172 C3205.0141869 1179.07603276 3148.92136156 1190.93494426 3098.89355469 1177.44116211 C3080.33620263 1172.13529796 3062.72532767 1162.73822533 3048.66552734 1149.43408203 C3046.81499568 1147.68709997 3044.92687187 1146.10008486 3042.93896484 1144.51611328 C3030.62421038 1133.98527185 3021.13566234 1118.28358957 3013.46484375 1104.14453125 C3012.51810579 1102.42140099 3011.53153216 1100.72035099 3010.54443359 1099.02001953 C3000.94826421 1082.24805846 2989.50146484 1057.97704165 2989.50146484 1038.39111328 C2987.00684779 1040.69451504 2985.28573456 1043.12428077 2983.49755859 1046.00439453 C2982.92682617 1046.91584229 2982.35609375 1047.82729004 2981.76806641 1048.76635742 C2981.16446289 1049.73565186 2980.56085937 1050.70494629 2979.93896484 1051.70361328 C2974.40216777 1060.49445531 2968.70404446 1069.05898133 2962.50146484 1077.39111328 C2961.72802734 1078.45072266 2960.95458984 1079.51033203 2960.15771484 1080.60205078 C2954.01960294 1088.89320418 2947.1057008 1096.32662437 2940.00195312 1103.79345703 C2938.19541905 1105.71697785 2936.46367575 1107.69591444 2934.75146484 1109.70361328 C2928.27528578 1117.20749834 2921.06656104 1124.00250582 2913.50146484 1130.39111328 C2912.65455078 1131.12716797 2911.80763672 1131.86322266 2910.93505859 1132.62158203 C2870.57131574 1167.16415925 2820.4473166 1187.60073477 2767.12646484 1187.64111328 C2765.92426804 1187.6421254 2765.92426804 1187.6421254 2764.69778442 1187.64315796 C2752.39733067 1187.62672438 2740.54214151 1187.10721619 2728.50146484 1184.39111328 C2727.72673828 1184.22482422 2726.95201172 1184.05853516 2726.15380859 1183.88720703 C2695.68155769 1177.19817634 2669.83961303 1161.84185558 2647.50146484 1140.39111328 C2646.94676514 1139.86195312 2646.39206543 1139.33279297 2645.82055664 1138.78759766 C2641.48419746 1134.56798431 2637.70848078 1130.09094281 2634.06396484 1125.26611328 C2633.4990332 1124.52111572 2632.93410156 1123.77611816 2632.35205078 1123.00854492 C2627.62390134 1116.69645189 2623.44549115 1110.22579241 2619.50146484 1103.39111328 C2618.78017651 1102.20668542 2618.05746514 1101.02312324 2617.33349609 1099.84033203 C2602.55258567 1075.22893293 2594.75477413 1046.50714681 2590.06396484 1018.39111328 C2589.95507935 1017.73892822 2589.84619385 1017.08674316 2589.73400879 1016.41479492 C2588.21442985 1007.26391173 2586.85791682 998.10227245 2585.75146484 988.89111328 C2585.63617432 987.93333984 2585.52088379 986.97556641 2585.40209961 985.98876953 C2583.96356815 973.42639335 2583.33920244 960.91547578 2583.29833984 948.27392578 C2583.29551247 947.57649136 2583.29268509 946.87905693 2583.28977203 946.16048813 C2583.27490376 942.45366819 2583.26560222 938.74688577 2583.26123047 935.04003906 C2583.25689277 932.05618751 2583.24316816 929.07263278 2583.22021484 926.08886719 C2583.01758834 899.16298918 2584.73289424 872.71708043 2588.87646484 846.07861328 C2589.09291723 844.65967749 2589.30930531 843.24073188 2589.52563477 841.82177734 C2590.16391148 837.67486708 2590.82868746 833.53254695 2591.50146484 829.39111328 C2591.69466309 828.19115723 2591.88786133 826.99120117 2592.08691406 825.75488281 C2596.84438161 796.77162015 2605.35030526 769.06815212 2614.57655334 741.26144409 C2616.31676941 735.9999088 2617.9646681 730.71604411 2619.50146484 725.39111328 C2618.90462891 725.85259766 2618.30779297 726.31408203 2617.69287109 726.78955078 C2574.15415067 759.52445796 2518.68936708 769.30356371 2465.31396484 761.82861328 C2464.38583984 761.68423828 2463.45771484 761.53986328 2462.50146484 761.39111328 C2462.17275391 762.53580078 2462.17275391 762.53580078 2461.83740234 763.70361328 C2459.98985209 768.80328414 2457.56786574 773.55270761 2455.12646484 778.39111328 C2454.59118164 779.45563721 2454.05589844 780.52016113 2453.50439453 781.61694336 C2448.6046733 791.29798307 2443.45811045 800.82992196 2438.19970703 810.31982422 C2436.30436096 813.74757775 2434.42195865 817.18227377 2432.54052734 820.61767578 C2422.355021 839.1990703 2411.82478363 857.47710638 2400.50146484 875.39111328 C2399.56637312 876.87536488 2398.63148299 878.35974352 2397.69677734 879.84423828 C2395.18198016 883.83540501 2392.66113575 887.8227078 2390.13720703 891.80810547 C2389.01230285 893.58444669 2387.88798675 895.36116043 2386.76416016 897.13818359 C2380.40261684 907.19352626 2374.02699687 917.23225584 2367.38037109 927.10205078 C2365.01464749 930.6153983 2362.67648028 934.14645263 2360.34130859 937.68017578 C2348.95146212 954.90105654 2337.35668299 971.83167881 2324.33740234 987.87548828 C2321.64824464 991.1927837 2319.03200448 994.56089442 2316.43896484 997.95361328 C2303.69244025 1014.59680947 2290.47605931 1030.83375281 2276.87109375 1046.78320312 C2275.43561063 1048.46842448 2274.00557994 1050.15818137 2272.57568359 1051.84814453 C2267.10994986 1058.28840961 2261.54775054 1064.61193135 2255.77319336 1070.77783203 C2253.22900771 1073.49737051 2250.75314871 1076.25461449 2248.32958984 1079.08251953 C2244.10397397 1083.93357506 2239.57025917 1088.47273364 2235.01342773 1093.00952148 C2233.56622099 1094.45136549 2232.12444458 1095.89848444 2230.68310547 1097.34619141 C2226.03990945 1101.99272059 2221.338377 1106.51321382 2216.34936523 1110.78833008 C2213.20442727 1113.51610359 2210.21026162 1116.40311317 2207.18896484 1119.26611328 C2201.16574441 1124.92406415 2194.97792125 1130.25430745 2188.50146484 1135.39111328 C2187.36228882 1136.32068899 2186.224339 1137.25176875 2185.08740234 1138.18408203 C2160.51916066 1158.24447983 2133.28354565 1176.60677847 2102.50146484 1185.39111328 C2101.69451172 1185.63603516 2100.88755859 1185.88095703 2100.05615234 1186.13330078 C2081.74286789 1190.79138359 2062.21856968 1187.08952422 2046.13037109 1177.71142578 C2007.70377614 1153.93375622 1985.8983761 1104.20437546 1971.50146484 1063.39111328 C1971.0730127 1062.1905127 1970.64456055 1060.98991211 1970.203125 1059.75292969 C1947.74341855 996.5346179 1931.79189306 927.7546855 1924.90380859 860.95751953 C1924.72719671 857.55580541 1924.72719671 857.55580541 1923.50146484 855.39111328 C1923.2770874 856.02049805 1923.05270996 856.64988281 1922.8215332 857.29833984 C1909.49924047 894.44812551 1893.56535728 930.32227773 1876.00146484 965.64111328 C1875.66784943 966.31388306 1875.33423401 966.98665283 1874.99050903 967.67980957 C1871.55546888 974.59182605 1868.03493185 981.39433846 1863.98486328 987.97265625 C1862.3691766 990.60678928 1860.81840945 993.27267254 1859.27490234 995.94970703 C1842.22405059 1025.46741893 1823.44735683 1053.50111682 1802.50146484 1080.39111328 C1801.57333984 1081.61314453 1801.57333984 1081.61314453 1800.62646484 1082.85986328 C1791.0584583 1095.23228554 1779.74320878 1106.24085447 1768.75146484 1117.32861328 C1767.47589722 1118.62375854 1767.47589722 1118.62375854 1766.17456055 1119.94506836 C1761.00215045 1125.12445944 1755.63394865 1129.87405825 1749.92138672 1134.45043945 C1747.25657721 1136.58750269 1744.69636134 1138.82891424 1742.12646484 1141.07861328 C1703.15131979 1173.54107218 1655.84226848 1191.29039827 1605.05126953 1187.10693359 C1569.23139962 1183.0072676 1537.50004992 1166.58691162 1513.83740234 1139.33642578 C1494.73429876 1115.24990387 1483.52874037 1087.39595743 1478.18896484 1057.32861328 C1478.06540619 1056.63593353 1477.94184753 1055.94325378 1477.81454468 1055.22958374 C1474.29871021 1035.19185241 1473.12305649 1015.41115418 1473.18896484 995.07861328 C1473.19120056 993.36724686 1473.19120056 993.36724686 1473.19348145 991.62130737 C1473.23625991 973.35570232 1474.05206318 955.50753842 1476.50146484 937.39111328 C1476.66195312 936.15973633 1476.82244141 934.92835938 1476.98779297 933.65966797 C1477.92012732 926.53188042 1478.90759928 919.41403361 1479.95141602 912.30175781 C1480.35260154 909.44947653 1480.72690395 906.60067462 1481.0769043 903.7421875 C1483.04652387 887.96606987 1486.08223373 872.43017339 1489.24004364 856.85873795 C1489.69579231 854.60738629 1490.14863189 852.3554671 1490.60064697 850.10336304 C1495.4571898 825.91818849 1500.61335858 801.80314478 1505.87646484 777.70361328 C1511.55872635 751.6836607 1517.10004392 725.66523247 1521.50146484 699.39111328 C1521.66974792 698.38667175 1521.66974792 698.38667175 1521.84143066 697.36193848 C1530.55598247 653.72961456 1530.55598247 653.72961456 1522.04833984 611.46142578 C1518.71468906 606.99972145 1514.56642222 605.74850975 1509.25146484 604.82861328 C1494.07981123 607.10436132 1481.91930347 617.66705151 1471.15380859 627.89111328 C1469.04886976 629.87514988 1466.92385753 631.74689723 1464.68896484 633.57861328 C1461.66746206 636.13138651 1459.19522841 638.98732475 1456.64208984 642.00048828 C1453.92672208 645.03297929 1451.03151928 647.85428931 1448.12646484 650.70361328 C1442.47503844 656.28616868 1437.40956191 662.13913249 1432.50146484 668.39111328 C1431.5709331 669.54487865 1430.63853595 670.69714126 1429.70458984 671.84814453 C1414.54290921 690.56982654 1400.63470519 710.11935812 1387.25146484 730.14111328 C1386.68718781 730.98351059 1386.68718781 730.98351059 1386.11151123 731.84292603 C1380.71298393 739.91149746 1375.54319317 748.09565357 1370.50146484 756.39111328 C1369.84339844 757.4666748 1369.18533203 758.54223633 1368.50732422 759.65039062 C1350.11107697 789.72049313 1332.76494206 820.20896651 1316.55224609 851.52001953 C1314.44821307 855.5823428 1312.31706696 859.62902317 1310.16943359 863.66845703 C1301.18083396 880.65595748 1293.13503475 897.96561683 1285.33483887 915.52124023 C1284.1009752 918.28970716 1282.85126093 921.05097667 1281.60302734 923.81298828 C1270.09738518 949.42064174 1259.90581606 975.56508883 1250.66943359 1002.06982422 C1249.52153116 1005.33405178 1248.34526861 1008.58643437 1247.15771484 1011.83642578 C1233.21080574 1050.08632311 1220.81192853 1089.01820021 1210.93115234 1128.52392578 C1210.62637718 1129.73716522 1210.62637718 1129.73716522 1210.31544495 1130.97491455 C1209.36427415 1134.77207345 1208.43037193 1138.57192784 1207.52954102 1142.38134766 C1204.48017734 1154.98512348 1199.869405 1162.47157882 1189.50146484 1170.39111328 C1167.24561494 1183.83875673 1135.34028502 1185.72803539 1110.12646484 1181.26611328 C1097.58173877 1178.1407836 1087.35541175 1172.70861269 1077.50146484 1164.39111328 C1076.85822266 1163.86130859 1076.21498047 1163.33150391 1075.55224609 1162.78564453 C1065.61053349 1153.77089813 1059.09434301 1140.74484883 1054.50146484 1128.39111328 C1054.07349609 1127.29154297 1053.64552734 1126.19197266 1053.20458984 1125.05908203 C1050.33896322 1117.1786088 1048.4819892 1109.22264466 1046.81396484 1101.01611328 C1046.61150146 1100.02506592 1046.40903809 1099.03401855 1046.20043945 1098.01293945 C1043.23420154 1082.71684559 1042.12821929 1067.36231476 1041.37646484 1051.82861328 C1041.28973985 1050.12350891 1041.2025025 1048.41843051 1041.11474609 1046.71337891 C1040.90444454 1042.60623081 1040.70096363 1038.49879968 1040.50146484 1034.39111328 C1039.83034668 1035.3335791 1039.15922852 1036.27604492 1038.46777344 1037.24707031 C1037.57018192 1038.50604508 1036.67255641 1039.76499561 1035.77490234 1041.02392578 C1035.11445923 1041.95168823 1035.11445923 1041.95168823 1034.44067383 1042.89819336 C1031.00374569 1047.71622811 1027.48675221 1052.46841902 1023.91552734 1057.18798828 C1022.12076656 1059.55990555 1020.35029335 1061.94854406 1018.58740234 1064.34423828 C1013.56167142 1071.15246686 1008.5193797 1077.79310457 1002.73193359 1083.98486328 C1001.52376325 1085.28824845 1000.32374017 1086.60046831 999.17358398 1087.95532227 C993.61058029 1094.49865219 987.52882098 1100.51472116 981.44995117 1106.57299805 C979.5681821 1108.44940803 977.69181746 1110.33110297 975.81591797 1112.21337891 C969.88358127 1118.14959864 963.95440967 1124.01471648 957.50146484 1129.39111328 C956.907771 1129.89682861 956.31407715 1130.40254395 955.70239258 1130.92358398 C922.5040311 1159.06467926 884.05175501 1180.26970215 840.50146484 1186.39111328 C839.82809082 1186.49133789 839.1547168 1186.5915625 838.4609375 1186.69482422 C831.05046381 1187.67038904 823.58944024 1187.63473125 816.12646484 1187.64111328 C815.06116043 1187.6421254 815.06116043 1187.6421254 813.97433472 1187.64315796 C802.58425009 1187.62600591 791.61724958 1187.01804986 780.50146484 1184.39111328 C779.81197754 1184.23545898 779.12249023 1184.07980469 778.41210938 1183.91943359 C761.30253773 1179.92228023 744.50499913 1171.98781759 730.50146484 1161.39111328 C729.14408203 1160.364375 729.14408203 1160.364375 727.75927734 1159.31689453 C692.91187023 1131.82396852 672.93528366 1090.74076953 663.19287109 1048.14501953 C662.77869317 1045.49712922 662.77869317 1045.49712922 661.50146484 1044.39111328 C660.51919922 1046.04433594 660.51919922 1046.04433594 659.51708984 1047.73095703 C647.85339983 1067.18918418 634.88029188 1085.67752013 619.50146484 1102.39111328 C618.39286664 1103.65808266 617.28850954 1104.92877885 616.18896484 1106.20361328 C594.17985757 1131.34965079 569.09095611 1152.60596292 539.50146484 1168.39111328 C538.75880371 1168.78782227 538.01614258 1169.18453125 537.25097656 1169.59326172 C511.17117259 1183.2663912 480.61073008 1192.41364953 451.01318359 1192.59423828 C449.84798187 1192.60482773 449.84798187 1192.60482773 448.65924072 1192.6156311 C415.84833212 1192.84618628 415.84833212 1192.84618628 401.50146484 1189.39111328 C400.64891113 1189.18711914 399.79635742 1188.983125 398.91796875 1188.77294922 C386.92313394 1185.80288199 375.58846847 1181.84065744 364.50146484 1176.39111328 C362.82697266 1175.57513672 362.82697266 1175.57513672 361.11865234 1174.74267578 C347.6848195 1167.84772061 336.30581761 1158.84267086 325.50146484 1148.39111328 C324.56431641 1147.50552734 323.62716797 1146.61994141 322.66162109 1145.70751953 C311.8254196 1135.23607096 303.20210153 1123.31599703 295.50146484 1110.39111328 C295.03981934 1109.61687012 294.57817383 1108.84262695 294.10253906 1108.04492188 C269.62958572 1066.4223305 258.3693694 1016.37693711 256.50146484 968.39111328 C256.10958984 969.22126953 255.71771484 970.05142578 255.31396484 970.90673828 C244.6983871 992.94406228 231.90292723 1013.95686314 218.50146484 1034.39111328 C217.81793945 1035.43912109 217.81793945 1035.43912109 217.12060547 1036.50830078 C207.97259691 1050.51402644 198.30234152 1064.12904642 188.18896484 1077.45361328 C187.53138184 1078.32195801 186.87379883 1079.19030273 186.19628906 1080.08496094 C182.62882997 1084.75176333 178.94769029 1089.2563814 175.04467773 1093.64624023 C173.08578259 1095.86111503 171.22799019 1098.14857666 169.37646484 1100.45361328 C160.27859265 1111.6142856 150.7326715 1122.3334043 140.86083984 1132.81298828 C137.74667303 1136.11934367 134.6824548 1139.46858214 131.62646484 1142.82861328 C121.69417116 1153.6705114 121.69417116 1153.6705114 118.50146484 1156.39111328 C117.84146484 1156.39111328 117.18146484 1156.39111328 116.50146484 1156.39111328 C116.10701172 1157.29023438 116.10701172 1157.29023438 115.70458984 1158.20751953 C114.42974492 1160.52128029 113.28237007 1161.664154 111.25146484 1163.32861328 C107.90587117 1166.15202718 104.68242277 1169.06854929 101.49511719 1172.06713867 C95.97825736 1177.25662604 90.39764567 1182.27609852 84.47802734 1187.00830078 C82.18165852 1188.84660128 79.91088825 1190.70540038 77.64990234 1192.58642578 C71.12707407 1197.99331337 64.69311882 1203.15139545 57.43115234 1207.54736328 C53.74016833 1209.87022255 50.22949296 1212.40958736 46.68896484 1214.95361328 C-20.47142902 1262.7722965 -104.26529804 1298.36904331 -187.76025391 1298.59423828 C-188.48250467 1298.59706566 -189.20475544 1298.59989304 -189.94889259 1298.60280609 C-193.79185967 1298.61772428 -197.6347901 1298.62699304 -201.4777832 1298.63134766 C-204.57914341 1298.6356786 -207.68021696 1298.64936819 -210.78149414 1298.67236328 C-238.31449819 1298.87208527 -265.45418055 1297.4422771 -292.62353516 1292.64111328 C-293.35593414 1292.51516785 -294.08833313 1292.38922241 -294.84292603 1292.25946045 C-318.92288544 1288.10988111 -342.37568498 1282.33586834 -365.49853516 1274.39111328 C-366.50658203 1274.0538623 -367.51462891 1273.71661133 -368.55322266 1273.36914062 C-427.77900184 1253.52360679 -487.6107664 1217.3216182 -528.66650391 1169.50048828 C-530.65165103 1167.21481782 -532.69893346 1164.9940995 -534.74853516 1162.76611328 C-540.33474908 1156.56551034 -545.42659123 1150.01281785 -550.49853516 1143.39111328 C-551.24006836 1142.4269751 -551.24006836 1142.4269751 -551.99658203 1141.44335938 C-558.69120966 1132.71751107 -565.11178609 1123.86340881 -571.06591797 1114.61474609 C-572.08863032 1113.02734594 -573.11728987 1111.44377091 -574.14990234 1109.86279297 C-595.03183767 1077.81171705 -610.90924223 1043.49400187 -623.49853516 1007.39111328 C-623.75731445 1006.65641815 -624.01609375 1005.92172302 -624.28271484 1005.1647644 C-629.32387303 990.78213079 -633.34657138 976.24502331 -636.99853516 961.45361328 C-637.27922852 960.32448517 -637.55992187 959.19535706 -637.84912109 958.03201294 C-642.73076621 938.32794643 -646.94213972 918.59829086 -650.15142822 898.55438232 C-650.49539525 896.41068205 -650.84674945 894.26829344 -651.19921875 892.12597656 C-654.54737769 871.60922067 -656.5830682 851.03668584 -658.2434082 830.31884766 C-658.32106918 829.35619492 -658.39873016 828.39354218 -658.47874451 827.40171814 C-658.62364671 825.5894636 -658.76523907 823.7769403 -658.90296936 821.96412659 C-658.9670549 821.1550737 -659.03114044 820.34602081 -659.09716797 819.51245117 C-659.1509259 818.80971573 -659.20468384 818.10698029 -659.2600708 817.38294983 C-659.44783036 815.39693008 -659.44783036 815.39693008 -660.0055027 813.54651546 C-660.52823622 811.2612684 -660.62437595 809.25536484 -660.6255188 806.9128418 C-660.62833862 806.02122345 -660.63115845 805.1296051 -660.63406372 804.21096802 C-660.63203949 803.24045502 -660.63001526 802.26994202 -660.62792969 801.27001953 C-660.62968201 800.24198212 -660.63143433 799.2139447 -660.63323975 798.15475464 C-660.6376433 794.75435705 -660.6347255 791.35401141 -660.63134766 787.95361328 C-660.63202112 785.59236643 -660.63299151 783.23111966 -660.63424683 780.86987305 C-660.63572177 775.92024068 -660.63357574 770.97062636 -660.62890625 766.02099609 C-660.6232091 759.67212996 -660.62648918 753.32330611 -660.63247871 746.97444153 C-660.63608979 742.09834473 -660.63494321 737.22225798 -660.63235092 732.34616089 C-660.63168317 730.00495397 -660.6325048 727.66374614 -660.63483047 725.32254028 C-660.63736591 722.05240457 -660.63350372 718.78233761 -660.62792969 715.51220703 C-660.62995392 714.54169403 -660.63197815 713.57118103 -660.63406372 712.57125854 C-660.6312439 711.6796402 -660.62842407 710.78802185 -660.6255188 709.86938477 C-660.62514177 709.09658676 -660.62476475 708.32378876 -660.6243763 707.52757263 C-660.49659869 705.35823707 -660.05238317 703.4870721 -659.49853516 701.39111328 C-659.22394181 698.66367946 -658.98407714 695.94369567 -658.77197266 693.21142578 C-658.63091525 691.50430213 -658.48868737 689.79727491 -658.34545898 688.09033203 C-658.26953522 687.18460449 -658.19361145 686.27887695 -658.11538696 685.34570312 C-651.20146721 604.45502302 -631.85229041 525.61215634 -601.49853516 450.39111328 C-601.1147168 449.43575684 -600.73089844 448.48040039 -600.33544922 447.49609375 C-596.83204041 438.82317538 -593.10401171 430.32219048 -588.84033203 421.99536133 C-586.09496209 416.63339237 -583.49634039 411.20936778 -580.91357422 405.76733398 C-568.41074484 379.47656037 -553.98383976 354.29949561 -538.62353516 329.57861328 C-537.73251099 328.13929443 -537.73251099 328.13929443 -536.82348633 326.67089844 C-533.1899004 320.87394613 -529.33606792 315.30395587 -525.25439453 309.81298828 C-523.25542629 307.05579071 -521.48198176 304.20672795 -519.71728516 301.29736328 C-517.91907242 298.48477413 -515.88434997 295.86767254 -513.85009766 293.22314453 C-512.3460781 291.25305634 -512.3460781 291.25305634 -510.74853516 288.39111328 C-510.33603516 287.73111328 -509.92353516 287.07111328 -509.49853516 286.39111328 C-508.83853516 286.39111328 -508.17853516 286.39111328 -507.49853516 286.39111328 C-507.2382251 285.6629541 -506.97791504 284.93479492 -506.7097168 284.18457031 C-505.46320954 281.30963864 -504.02620681 279.1751933 -502.11962891 276.69580078 C-501.45020264 275.82052734 -500.78077637 274.94525391 -500.09106445 274.04345703 C-499.37990479 273.12693359 -498.66874512 272.21041016 -497.93603516 271.26611328 C-497.20876221 270.32123047 -496.48148926 269.37634766 -495.73217773 268.40283203 C-490.76506721 261.97004403 -485.73878957 255.60428258 -480.49853516 249.39111328 C-479.65291016 248.38435547 -478.80728516 247.37759766 -477.93603516 246.34033203 C-475.62325725 243.59320821 -473.29913543 240.85593126 -470.97070312 238.12207031 C-469.43603392 236.3176251 -467.90670095 234.50873809 -466.37744141 232.69970703 C-461.76734319 227.26320284 -457.19200752 221.88820603 -452.04931641 216.94189453 C-450.38063457 215.27321269 -448.88808328 213.51296396 -447.37353516 211.70361328 C-444.45749131 208.32915207 -441.30469356 205.31248806 -437.99853516 202.32861328 C-430.28806479 195.36772311 -423.01713145 187.96555569 -415.72119141 180.57641602 C-410.4871738 175.2889275 -405.15352012 170.22504488 -399.49853516 165.39111328 C-397.72283295 163.77143512 -395.95145208 162.1469961 -394.18603516 160.51611328 C-389.30516706 156.06924851 -384.27477991 151.86682428 -379.13574219 147.72363281 C-377.27465448 146.20889724 -375.43096309 144.67439543 -373.58837891 143.13720703 C-364.10936338 135.24004135 -354.44836312 127.68435368 -344.49853516 120.39111328 C-343.79647949 119.87194336 -343.09442383 119.35277344 -342.37109375 118.81787109 C-328.27113413 108.39574861 -313.86095183 98.01138715 -298.28759766 89.88720703 C-294.68678217 87.95567716 -291.19499789 85.85863995 -287.68603516 83.76611328 C-278.27746726 78.18380282 -268.68580511 72.95529549 -259.05273438 67.77246094 C-256.82947993 66.57009297 -254.61714322 65.35083027 -252.40869141 64.12158203 C-211.51217645 41.58411942 -165.79591151 25.36971648 -120.49853516 14.39111328 C-118.89486084 14.00149414 -118.89486084 14.00149414 -117.25878906 13.60400391 C-104.43932412 10.53415421 -91.55360022 7.92794858 -78.56103516 5.70361328 C-77.46952148 5.51331543 -76.37800781 5.32301758 -75.25341797 5.12695312 C-71.34302282 4.48418683 -67.42489952 3.92485438 -63.49853516 3.39111328 C-62.59526489 3.26369751 -61.69199463 3.13628174 -60.76135254 3.00500488 C-40.49372164 0.22524158 -20.42261339 -0.078601 0 0 Z M2395.79833984 412.59814453 C2383.5728121 427.46421993 2378.06329992 445.76394677 2374.50146484 464.39111328 C2374.3504834 465.14312012 2374.19950195 465.89512695 2374.04394531 466.66992188 C2368.64169322 494.81175071 2369.20113408 527.28788315 2374.50146484 555.39111328 C2374.66775391 556.31972168 2374.83404297 557.24833008 2375.00537109 558.20507812 C2378.70719716 578.45886539 2384.50418361 598.52757492 2394.51464844 616.60595703 C2395.49920181 618.38701944 2396.44881643 620.18370134 2397.39599609 621.98486328 C2400.89199159 628.49760783 2404.84029584 634.43887508 2409.37646484 640.26611328 C2409.85317627 640.87986816 2410.3298877 641.49362305 2410.82104492 642.12597656 C2411.99636544 643.59053858 2413.24314424 644.99721605 2414.50146484 646.39111328 C2415.16146484 646.39111328 2415.82146484 646.39111328 2416.50146484 646.39111328 C2432.95564438 597.2353597 2443.54662331 545.83873607 2449.50146484 494.39111328 C2449.61345215 493.46814453 2449.72543945 492.54517578 2449.84082031 491.59423828 C2450.73257726 483.32839849 2450.72277052 475.02762093 2450.74169922 466.72265625 C2450.75139345 464.15998722 2450.78250526 461.59812616 2450.81396484 459.03564453 C2450.92582101 441.69103336 2449.06972294 422.60311143 2436.50146484 409.39111328 C2429.63474896 403.31671077 2422.74622691 401.89505265 2413.68115234 402.09033203 C2405.92913884 402.82363061 2401.03422452 407.06435608 2395.79833984 412.59814453 Z M586.50146484 584.39111328 C585.63908203 585.14521484 584.77669922 585.89931641 583.88818359 586.67626953 C575.85458473 593.6909582 575.85458473 593.6909582 568.50146484 601.39111328 C568.50146484 602.05111328 568.50146484 602.71111328 568.50146484 603.39111328 C567.84146484 603.39111328 567.18146484 603.39111328 566.50146484 603.39111328 C564.75199544 605.41697456 563.1182839 607.450241 561.50146484 609.57861328 C561.010896 610.21573242 560.52032715 610.85285156 560.01489258 611.50927734 C558.99754951 612.83125041 557.98251708 614.15500465 556.96972656 615.48046875 C555.65299486 617.19392773 554.31938412 618.89143879 552.97412109 620.58251953 C545.94720411 629.49998468 539.66499257 638.86117878 533.50146484 648.39111328 C532.80279297 649.46876953 532.10412109 650.54642578 531.38427734 651.65673828 C514.60555989 678.25204976 501.13767384 707.06004533 489.70800781 736.30615234 C488.57123836 739.21271221 487.41525694 742.11090696 486.25537109 745.00830078 C482.23910991 755.15508581 478.93236891 765.3454089 476.05224609 775.86767578 C474.71655693 780.71573276 473.21978036 785.50092569 471.69238281 790.29150391 C447.78083158 865.64488871 426.31121889 968.48238156 463.25927734 1043.00439453 C466.27024362 1048.75912011 469.39484542 1054.34583799 473.50146484 1059.39111328 C474.16146484 1059.39111328 474.82146484 1059.39111328 475.50146484 1059.39111328 C475.72189453 1059.95958984 475.94232422 1060.52806641 476.16943359 1061.11376953 C481.81456861 1070.76512939 494.99952166 1075.17780706 505.01708984 1078.13330078 C516.50702036 1080.91066809 528.34581541 1080.03054501 539.50146484 1076.39111328 C540.72542969 1076.00826172 540.72542969 1076.00826172 541.97412109 1075.61767578 C576.24800015 1063.46856093 599.45440023 1027.76098529 616.88916016 998.12792969 C618.36833703 995.6170919 619.86555997 993.11814589 621.36865234 990.62158203 C650.87568224 941.18724533 670.86612756 884.95159393 685.50146484 829.39111328 C685.67679749 828.72607788 685.85213013 828.06104248 686.03277588 827.37585449 C691.07320327 808.18537519 695.35092876 788.89388812 699.00146484 769.39111328 C699.25923706 768.02622269 699.25923706 768.02622269 699.5222168 766.63375854 C702.04057283 753.20877049 703.77977788 740.09029926 703.50146484 726.39111328 C704.16146484 726.06111328 704.82146484 725.73111328 705.50146484 725.39111328 C706.35318112 710.24145757 706.74291819 695.12696029 706.75146484 679.95361328 C706.75213959 678.8639325 706.75281433 677.77425171 706.75350952 676.65155029 C706.71904558 641.43068629 706.05803549 598.56887887 680.00146484 571.39111328 C669.89278246 561.94018763 658.48668372 558.00772865 644.68505859 558.17626953 C622.78116247 559.65444657 602.65748891 569.93835997 586.50146484 584.39111328 Z M2891.97021484 605.27001953 C2889.76242299 607.94035932 2887.62263688 610.6515922 2885.50146484 613.39111328 C2884.76154297 614.31408203 2884.02162109 615.23705078 2883.25927734 616.18798828 C2871.52140454 631.04313222 2860.7956715 646.8938016 2851.50146484 663.39111328 C2851.03595215 664.21144043 2850.57043945 665.03176758 2850.09082031 665.87695312 C2808.58280803 739.45271844 2782.900333 824.5691101 2773.50146484 908.39111328 C2773.38947754 909.353479 2773.27749023 910.31584473 2773.16210938 911.30737305 C2772.10028599 921.85273671 2772.25756834 932.49121411 2772.25146484 943.07861328 C2772.2507901 944.12879639 2772.25011536 945.17897949 2772.24942017 946.26098633 C2772.26532291 961.83794416 2772.64153875 977.0349144 2775.50146484 992.39111328 C2775.67838867 993.36822266 2775.8553125 994.34533203 2776.03759766 995.35205078 C2781.13618614 1022.75586316 2790.6177483 1052.82021423 2813.94287109 1070.21142578 C2827.66046839 1078.97483465 2843.97866695 1081.47960204 2859.87646484 1078.39111328 C2877.42488673 1073.81698139 2891.53281896 1062.63068708 2904.50146484 1050.39111328 C2905.16533203 1049.78009766 2905.82919922 1049.16908203 2906.51318359 1048.53955078 C2912.91377129 1042.43757063 2918.19621937 1035.43787548 2923.50146484 1028.39111328 C2924.14801025 1027.53573975 2924.14801025 1027.53573975 2924.80761719 1026.66308594 C2931.28261272 1018.03391399 2936.85559565 1009.0118194 2942.20410156 999.65039062 C2943.52924926 997.34272845 2944.87396379 995.04750361 2946.22412109 992.75439453 C2963.57245466 963.23071842 2977.15438636 932.47164045 2989.01416016 900.40234375 C2990.36234261 896.7568193 2991.73967412 893.12276402 2993.11865234 889.48876953 C3012.54885863 837.52908281 3024.58415959 782.35447723 3031.50146484 727.39111328 C3031.69264893 725.88967773 3031.69264893 725.88967773 3031.88769531 724.35791016 C3037.6260289 677.73501555 3040.07300976 615.65780125 3010.62646484 576.26611328 C3002.86460436 566.47793297 2993.42359088 561.57612374 2981.43896484 558.64111328 C2944.67076457 555.51190475 2914.9474232 579.13699089 2891.97021484 605.27001953 Z " fill="#4A64DE" transform="translate(678.49853515625,1398.60888671875)"/>
</svg>
