<?xml version="1.0" encoding="UTF-8"?>
<svg version="1.1" xmlns="http://www.w3.org/2000/svg" width="310" height="100">
<path d="M0 0 C5.15732521 4.98419945 6.81472661 9.19055533 7.375 16.25 C7.15689291 21.76810942 5.80211034 27.09366899 4.0625 32.3125 C4.87291748 32.06081055 5.68333496 31.80912109 6.51831055 31.54980469 C9.59167394 30.59540649 12.66508477 29.64116119 15.73852539 28.68701172 C17.05625206 28.27789109 18.37396106 27.86871353 19.69165039 27.45947266 C20.97135026 27.06203821 22.25113037 26.66486205 23.5309906 26.26794434 C24.81409153 25.86923414 26.09669313 25.46891364 27.37879944 25.0670166 C30.46502862 24.10235387 33.55479554 23.17408251 36.66772461 22.29882812 C43.09046665 20.46652402 48.08811459 18.55499208 53.25 14.3125 C60.74657473 8.60489244 67.49838767 4.86138546 77.15234375 4.87890625 C79.64941378 5.44572583 80.6159772 6.20716483 82.0625 8.3125 C81.61808749 11.85183316 81.01395419 12.35516543 78.16015625 14.86328125 C73.62253153 17.88875035 68.73508157 19.1553098 63.5 20.5 C61.66509337 20.9924802 59.83045044 21.48594412 57.99609375 21.98046875 C57.13717529 22.21161377 56.27825684 22.44275879 55.39331055 22.6809082 C49.97924842 24.14798464 46.22036895 25.63222771 41.875 29.25 C41.03582031 29.93964844 40.19664062 30.62929688 39.33203125 31.33984375 C37.10357639 33.21536766 37.10357639 33.21536766 35.38671875 35.06640625 C34.0625 36.3125 34.0625 36.3125 32.0625 36.3125 C31.80597656 36.88742188 31.54945313 37.46234375 31.28515625 38.0546875 C29.94609821 40.52745283 28.39099133 42.36096254 26.5 44.4375 C23.98570784 47.17288045 23.98570784 47.17288045 22.0625 50.3125 C21.4025 50.3125 20.7425 50.3125 20.0625 50.3125 C19.815 50.9725 19.5675 51.6325 19.3125 52.3125 C17.74432955 56.07610907 15.91744954 59.6836424 14.0625 63.3125 C15.0525 63.6425 16.0425 63.9725 17.0625 64.3125 C19.35480734 63.0849091 21.41948314 61.82729718 23.5625 60.375 C24.18253906 59.96620605 24.80257812 59.55741211 25.44140625 59.13623047 C30.26502409 55.92832651 34.94889149 52.54252146 39.5625 49.0390625 C46.67142178 44.12946339 46.67142178 44.12946339 50.4375 44.625 C51.241875 44.9653125 51.241875 44.9653125 52.0625 45.3125 C52.6159764 47.38803648 53.0625 49.15615964 53.0625 51.3125 C53.77535156 51.0959375 54.48820313 50.879375 55.22265625 50.65625 C66.08186108 47.49933446 66.08186108 47.49933446 71.0625 48.3125 C73.5 50.4375 73.5 50.4375 75.0625 53.3125 C75.12389611 55.31155741 75.1317106 57.31369789 75.0625 59.3125 C75.68592285 59.30726318 76.3093457 59.30202637 76.95166016 59.29663086 C97.49911802 59.14707778 97.49911802 59.14707778 105.8125 59.9375 C124.73630691 61.42260256 142.92157826 51.39892882 158.90087891 42.26123047 C160.1079007 41.5738407 161.31747582 40.89091155 162.52978516 40.21289062 C164.1450489 39.3087464 165.75063355 38.38737166 167.35546875 37.46484375 C170.0625 36.3125 170.0625 36.3125 172.42578125 36.62890625 C172.96589844 36.85449219 173.50601562 37.08007812 174.0625 37.3125 C171.75327477 44.24017569 159.81233241 48.02183454 153.375 51.25 C151.3187937 52.26520847 149.25897129 53.27242983 147.19628906 54.27441406 C145.75076331 54.97766069 144.30745884 55.68548832 142.86621094 56.39746094 C140.66570162 57.48366567 138.45889039 58.55595767 136.25 59.625 C135.26543823 60.11311157 135.26543823 60.11311157 134.26098633 60.61108398 C123.05867207 65.96001185 112.66339386 66.76964432 100.43676758 66.64868164 C97.86963751 66.62495043 95.30354127 66.6281573 92.73632812 66.63476562 C91.08072306 66.6291912 89.4251223 66.6220828 87.76953125 66.61328125 C86.63642265 66.61464836 86.63642265 66.61464836 85.48042297 66.61604309 C79.78539452 66.54113402 74.23128338 65.89689169 69.0625 63.3125 C68.6484375 61.24609375 68.6484375 61.24609375 68.4375 58.75 C68.32535156 57.51056641 68.32535156 57.51056641 68.2109375 56.24609375 C68.16195312 55.60800781 68.11296875 54.96992187 68.0625 54.3125 C66.90492188 54.68503906 65.74734375 55.05757812 64.5546875 55.44140625 C63.01583647 55.91995139 61.47676192 56.39777817 59.9375 56.875 C59.17695313 57.12185547 58.41640625 57.36871094 57.6328125 57.62304688 C53.19318079 58.98172727 49.58515482 60.01021389 45.0625 58.3125 C43.6875 55.75 43.6875 55.75 43.0625 53.3125 C42.43601563 53.8178125 41.80953125 54.323125 41.1640625 54.84375 C39.93816406 55.81828125 39.93816406 55.81828125 38.6875 56.8125 C37.46933594 57.78703125 37.46933594 57.78703125 36.2265625 58.78125 C34.0625 60.3125 34.0625 60.3125 32.0625 60.3125 C32.0625 60.9725 32.0625 61.6325 32.0625 62.3125 C29.9453125 63.75 29.9453125 63.75 27.1875 65.3125 C23.37366621 67.47994189 23.37366621 67.47994189 20.0625 70.3125 C18.22265625 70.796875 18.22265625 70.796875 16.125 71.0625 C15.43535156 71.16046875 14.74570313 71.2584375 14.03515625 71.359375 C12.0625 71.3125 12.0625 71.3125 9.0625 69.3125 C7.81758046 61.70465834 10.79437921 56.48781711 15.0625 50.3125 C21.27662946 42.30049208 28.03006025 34.54916772 36.0625 28.3125 C28.68432904 29.99136525 21.46649108 32.04688189 14.25 34.3125 C13.45037842 34.5614502 12.65075684 34.81040039 11.8269043 35.06689453 C4.48907448 37.39856993 -1.59252622 39.65744385 -7.3125 45 C-22.79649214 58.52898017 -46.4927586 65.39901674 -66.75 65.5 C-68.05582031 65.51417969 -69.36164063 65.52835937 -70.70703125 65.54296875 C-73.9375 65.3125 -73.9375 65.3125 -75.9375 63.3125 C-76.375 60.9375 -76.375 60.9375 -75.9375 58.3125 C-72.66489064 55.25127404 -69.79953214 53.66241447 -65.515625 52.44140625 C-64.37158203 52.11156738 -63.22753906 51.78172852 -62.04882812 51.44189453 C-60.6788186 51.0638563 -59.30833518 50.68753322 -57.9375 50.3125 C-57.13658936 50.09100281 -56.33567871 49.86950562 -55.51049805 49.64129639 C-47.91620801 47.54352939 -40.30897163 45.49415517 -32.70117188 43.44604492 C-29.794981 42.66281787 -26.88965719 41.87643362 -23.984375 41.08984375 C-22.67155548 40.73816383 -22.67155548 40.73816383 -21.33221436 40.37937927 C-17.18033748 39.25451982 -13.04918895 38.07723146 -8.9465332 36.78344727 C-8.22730179 36.55689957 -7.50807037 36.33035187 -6.76704407 36.09693909 C-2.84117236 34.41367424 -1.70558248 31.00672321 0.03125 27.359375 C2.07380425 21.32455562 2.07585538 15.37616962 -0.125 9.375 C-3.77616821 3.20578474 -8.70719776 1.14421556 -15.3671875 -0.92578125 C-31.83557471 -4.43927743 -47.99071429 0.51215156 -63.6875 5.3125 C-64.94868652 5.6933374 -66.20987305 6.0741748 -67.50927734 6.46655273 C-74.80096783 8.67933729 -82.06041269 10.98447226 -89.3046875 13.34765625 C-90.07953491 13.60018158 -90.85438232 13.85270691 -91.65270996 14.11288452 C-95.44482914 15.35073503 -99.23373609 16.59742514 -103.01855469 17.85742188 C-104.40036556 18.31257612 -105.78220029 18.76765792 -107.1640625 19.22265625 C-108.37658691 19.62621338 -109.58911133 20.02977051 -110.83837891 20.44555664 C-113.9375 21.3125 -113.9375 21.3125 -117.9375 21.3125 C-117.9375 19.9925 -117.9375 18.6725 -117.9375 17.3125 C-94.60730983 8.00212371 -70.78749778 -1.39572223 -45.9375 -5.6875 C-44.91873779 -5.86684082 -44.91873779 -5.86684082 -43.87939453 -6.04980469 C-29.34106149 -8.50669695 -12.05507789 -9.86852283 0 0 Z M64.0625 14.3125 C68.23837745 15.70445915 70.19724776 14.13573219 74.0625 12.3125 C69.88662255 10.92054085 67.92775224 12.48926781 64.0625 14.3125 Z M-22.46875 44.8515625 C-23.5810498 45.18196533 -24.69334961 45.51236816 -25.83935547 45.8527832 C-27.02674316 46.21073975 -28.21413086 46.56869629 -29.4375 46.9375 C-30.64680176 47.29996826 -31.85610352 47.66243652 -33.10205078 48.03588867 C-36.71560184 49.12244246 -40.32679799 50.21652071 -43.9375 51.3125 C-45.44715332 51.76761963 -45.44715332 51.76761963 -46.98730469 52.23193359 C-49.59835103 53.02128777 -52.20606629 53.82056453 -54.8125 54.625 C-55.57111328 54.85461426 -56.32972656 55.08422852 -57.11132812 55.32080078 C-61.05989753 56.55766934 -64.5366326 57.93189282 -67.9375 60.3125 C-67.9375 60.6425 -67.9375 60.9725 -67.9375 61.3125 C-49.59322802 62.43561869 -30.29972045 54.84549433 -14.9375 45.3125 C-14.6075 44.6525 -14.2775 43.9925 -13.9375 43.3125 C-17.13841562 43.3125 -19.40657123 43.93717568 -22.46875 44.8515625 Z " fill="#000000" transform="translate(123.9375,20.6875)"/>
</svg>
