<?xml version="1.0" encoding="UTF-8"?>
<svg version="1.1" xmlns="http://www.w3.org/2000/svg" width="225" height="225">
<path d="M0 0 C74.25 0 148.5 0 225 0 C225 74.25 225 148.5 225 225 C150.75 225 76.5 225 0 225 C0 150.75 0 76.5 0 0 Z " fill="#FEFEFE" transform="translate(0,0)"/>
<path d="M0 0 C0.80025101 -0.0071553 1.60050201 -0.01431061 2.42500305 -0.02168274 C3.29415344 -0.02437164 4.16330383 -0.02706055 5.05879211 -0.02983093 C6.44249748 -0.03968773 6.44249748 -0.03968773 7.85415649 -0.04974365 C10.90584905 -0.06944732 13.95749244 -0.0811334 17.00923157 -0.09111023 C18.57556808 -0.09722352 18.57556808 -0.09722352 20.17354774 -0.10346031 C25.7017001 -0.12430959 31.22982772 -0.13861568 36.75801086 -0.147995 C42.45636442 -0.1590507 48.15432656 -0.1934445 53.85254192 -0.23316669 C58.24416815 -0.2593627 62.63570158 -0.26768955 67.02739906 -0.27127647 C69.12725782 -0.27613549 71.22711262 -0.28772986 73.32689476 -0.30631447 C76.27299531 -0.33076674 79.21808906 -0.32972953 82.16426086 -0.32279968 C83.0232901 -0.33560974 83.88231934 -0.3484198 84.76737976 -0.36161804 C91.97580379 -0.30015311 98.08381167 1.57413584 103.49751282 6.45967102 C105.31003547 9.84830034 105.03725437 12.35534318 104.93501282 16.14717102 C105.74244934 15.72306946 106.54988586 15.2989679 107.38179016 14.86201477 C110.37310021 13.29331162 113.36627219 11.72828302 116.36079407 10.16572571 C117.65746136 9.48815858 118.95336481 8.80912763 120.24848938 8.12861633 C122.10816164 7.15179002 123.97050021 6.18022817 125.83345032 5.20967102 C126.95412903 4.62314758 128.07480774 4.03662415 129.22944641 3.43232727 C131.93501282 2.14717102 131.93501282 2.14717102 133.93501282 2.14717102 C133.93501282 10.06717102 133.93501282 17.98717102 133.93501282 26.14717102 C130.92376282 27.54967102 127.91251282 28.95217102 124.81001282 30.39717102 C115.16671648 34.94863081 105.81794524 39.93665215 96.48970032 45.09638977 C87.72311494 49.93910779 78.82373905 54.5337214 69.93501282 59.14717102 C71.42862542 62.13439623 74.15598106 62.88612236 77.06001282 64.27217102 C85.57315588 68.43677959 94.01165719 72.74218254 102.43501282 77.08467102 C103.11212311 77.4335437 103.7892334 77.78241638 104.48686218 78.14186096 C114.42846578 83.27018163 124.24531178 88.55311682 133.93501282 94.14717102 C133.93501282 102.06717102 133.93501282 109.98717102 133.93501282 118.14717102 C124.17061533 113.30742618 114.49212635 108.38394556 104.93501282 103.14717102 C104.98721985 104.53355774 104.98721985 104.53355774 105.04048157 105.94795227 C104.90216268 110.1436252 103.57658639 111.9344464 100.93501282 115.14717102 C96.73695637 118.19076195 92.99317758 119.26562046 87.86329651 119.28761292 C87.06160034 119.29332306 86.25990417 119.2990332 85.43391418 119.30491638 C84.12783203 119.30659317 84.12783203 119.30659317 82.79536438 119.30830383 C81.87128784 119.31326874 80.9472113 119.31823364 79.99513245 119.323349 C76.93862665 119.33795115 73.88217277 119.34476977 70.82563782 119.35029602 C68.69817605 119.35604953 66.5707143 119.36180724 64.44325256 119.36756897 C59.98119363 119.37807373 55.51915269 119.38391969 51.05708313 119.3874054 C45.34973487 119.39288581 39.64262569 119.41690654 33.93535233 119.44537735 C29.53947768 119.4640359 25.14366022 119.46921107 20.74774933 119.47074127 C18.64428654 119.47376158 16.54082462 119.48176903 14.43740082 119.49492645 C11.48883074 119.51205234 8.54083953 119.51009053 5.59223938 119.50361633 C4.72961487 119.51283112 3.86699036 119.5220459 2.97822571 119.53153992 C-3.6679941 119.4860111 -9.60957616 118.60258204 -14.50248718 113.70967102 C-17.11799781 109.42023359 -17.18614473 105.83257201 -17.16264343 100.85029602 C-17.15942078 99.64502258 -17.15619812 98.43974915 -17.15287781 97.19795227 C-17.1444989 95.94369446 -17.13612 94.68943665 -17.12748718 93.39717102 C-17.12297546 92.12744446 -17.11846375 90.8577179 -17.11381531 89.54951477 C-17.10203274 86.41535266 -17.08558134 83.28128561 -17.06498718 80.14717102 C-16.13770813 79.66473938 -16.13770813 79.66473938 -15.19169617 79.17256165 C-3.1181429 72.88871137 8.94420189 66.58773297 20.93501282 60.14717102 C17.38413181 57.23627768 13.43582083 55.23268159 9.36079407 53.17060852 C8.63635605 52.79989227 7.91191803 52.42917603 7.16552734 52.04722595 C4.8613196 50.86864827 2.55460894 49.6950832 0.24751282 48.52217102 C-2.06995753 47.34147783 -4.38686127 46.15970694 -6.70263672 44.97569275 C-8.14166555 44.24018622 -9.58173467 43.50671092 -11.0229187 42.7754364 C-15.95320975 40.25894845 -15.95320975 40.25894845 -17.06498718 39.14717102 C-17.37708393 34.80063186 -17.34361201 30.44101842 -17.37748718 26.08467102 C-17.40649109 24.86844055 -17.435495 23.65221008 -17.46537781 22.39912415 C-17.51646734 15.15620072 -17.07961583 10.25351661 -13.06498718 4.14717102 C-9.00576266 1.00127201 -5.06294852 0.03124119 0 0 Z " fill="#030303" transform="translate(57.06498718261719,52.85282897949219)"/>
<path d="M0 0 C2.98980551 1.15755795 5.77395414 2.44085255 8.61450195 3.92358398 C9.63229736 4.45314697 10.65009277 4.98270996 11.69873047 5.52832031 C12.76921631 6.09188232 13.83970215 6.65544434 14.94262695 7.23608398 C16.04340576 7.81189209 17.14418457 8.3877002 18.27832031 8.98095703 C27.66902874 13.91385656 36.96069743 19.01291058 46.19262695 24.23608398 C46.19262695 24.56608398 46.19262695 24.89608398 46.19262695 25.23608398 C14.51262695 25.23608398 -17.16737305 25.23608398 -49.80737305 25.23608398 C-47.25693365 22.68564459 -45.9018044 21.6056874 -42.80737305 20.10717773 C-42.01145752 19.71667236 -41.21554199 19.32616699 -40.39550781 18.92382812 C-39.54142334 18.51124756 -38.68733887 18.09866699 -37.80737305 17.67358398 C-36.00316111 16.78724362 -34.19979715 15.89917538 -32.3972168 15.00952148 C-31.47408691 14.55416016 -30.55095703 14.09879883 -29.59985352 13.62963867 C-25.15800697 11.41298715 -20.76106536 9.1136185 -16.36987305 6.79858398 C-15.19134766 6.17971313 -15.19134766 6.17971313 -13.98901367 5.54833984 C-13.24973633 5.15783447 -12.51045898 4.7673291 -11.7487793 4.36499023 C-11.05800293 4.0029248 -10.36722656 3.64085937 -9.65551758 3.26782227 C-7.6173368 2.17578721 -7.6173368 2.17578721 -5.1472168 0.32592773 C-2.80737305 -0.76391602 -2.80737305 -0.76391602 0 0 Z " fill="#F6F6F6" transform="translate(103.807373046875,124.763916015625)"/>
<path d="M0 0 C31.68 0 63.36 0 96 0 C93.4655142 2.5344858 92.17341984 3.5885716 89.10546875 5.05859375 C88.32494141 5.43894775 87.54441406 5.81930176 86.74023438 6.21118164 C85.89783203 6.6158667 85.05542969 7.02055176 84.1875 7.4375 C75.36103994 11.74879844 66.73167437 16.35337352 58.16088867 21.15209961 C57.28279541 21.6394458 56.40470215 22.12679199 55.5 22.62890625 C54.7265625 23.06275635 53.953125 23.49660645 53.15625 23.94360352 C51.03943289 24.98068092 49.33751191 25.69698376 47 26 C44.19063762 24.75241128 41.6088217 23.43734694 38.9375 21.9375 C37.25222835 21.01783185 35.56596726 20.09997533 33.87890625 19.18359375 C32.95352051 18.67812012 32.02813477 18.17264648 31.07470703 17.65185547 C27.66403567 15.81950654 24.22539645 14.0456906 20.77734375 12.28515625 C20.16440964 11.97142563 19.55147552 11.65769501 18.91996765 11.3344574 C16.45884075 10.07495844 13.99759408 8.81579694 11.5319519 7.56515503 C9.79722136 6.6842003 8.06648743 5.79538903 6.3359375 4.90625 C5.33095215 4.39384766 4.3259668 3.88144531 3.29052734 3.35351562 C1 2 1 2 0 0 Z " fill="#F4F4F4" transform="translate(54,75)"/>
</svg>
